<?xml version="1.0" encoding="UTF-8"?><svg id="a" xmlns="http://www.w3.org/2000/svg" viewBox="0 0 286.59 116.2"><g><path d="m85.84,11.15c-3.26-.3-6.84-.46-10.74-.46-3.44,0-8.74.17-15.9.51-7.16.34-12.55.51-16.18.51-4.56,0-8.74-.19-12.55-.57-.75-.53-1.12-1.14-1.12-1.82,0-.46.16-1.06.49-1.82.33-.76.49-1.25.49-1.48-2.88,1.37-5.77,3.46-8.65,6.27-2.05,2.81-3.07,5.06-3.07,6.73,0,1.06.28,2.01.84,2.85.19,1.29,1.21,2.28,3.07,2.96,1.4.53,2.79,1.06,4.19,1.6-.19.3-2.05,2.93-5.58,7.87-1.71,2.34-3.26,4.33-4.66,5.97-3.21,5.51-10.9,15.63-10.82,15.69C2.28,62.48.41,67.05.04,69.63c-.19,1.37.23,2.55,1.26,3.54,2.04,1.75,3.58,2.78,4.6,3.08.37.68.74,1.37,1.12,2.05.56,1.07,1.35,1.98,2.37,2.74,1.02.76,2.32,1.25,3.9,1.48,3.81.46,7.67.68,11.58.68,6.6,0,16.6-1.1,29.99-3.3,1.58-.46,2.74-1.6,3.49-3.42.46-1.44.93-2.93,1.39-4.45.19-.53.65-1.1,1.39-1.71.74-.61,1.12-.95,1.12-1.03l-.14-.11c-2.79-.38-6-.57-9.62-.57-4.09,0-11.91.46-23.44,1.37-3.26.23-5.39.34-6.42.34-.42,0-.8-.03-1.16-.05.18.4.36.8.57,1.21-.21-.41-.39-.81-.57-1.21-2.71-.18-3.91-.77-3.58-1.77.53-1.94,1.32-3.89,2.35-5.83,1.09-8.52,21.51-31.45,23.18-33.96,0-.07-.09-.68-.28-1.82-.09-.76.19-1.14.84-1.14,2.23-.08,6.46-.46,12.69-1.14,5.3-.53,9.44-.72,12.42-.57,4.74-.91,7.81-1.58,9.21-1.99,1.39-.42,2.51-1.5,3.35-3.25.65-1.44,1.26-2.89,1.81-4.33.09-.46.53-.93,1.32-1.42.79-.49,1.19-.93,1.19-1.31,0-.15-.05-.34-.14-.57Z" style="fill:#bcbec0;"/><path d="m122.45,43.36c-1.3-.23-2.42-1.08-3.35-2.56-.93-1.48-2-2.22-3.21-2.22-5.39,7.98-9.49,13.98-12.28,18.01-9.02,11.71-15.16,19.38-18.41,23.03-7.25,8.44-14.56,15.35-21.9,20.75-.56.46-1.26.61-2.09.46-.84-.15-1.21-.46-1.12-.91.65-4.26,2.51-9.5,5.58-15.73,4.56-9.12,7.07-14.32,7.53-15.62,1.67-3.42,3.35-6.8,5.02-10.14.29-.6.55-1.19.79-1.77-5.56-2.45-11.83-3.44-18.25-3.76-3.11,7.18-6.21,14.38-9.32,21.6-4.93,11.4-8,21.47-9.21,30.21,0,1.45,1.58,3,4.74,4.67,3.53,1.82,5.67,3.54,6.42,5.13.46,1.14,1.72,1.71,3.77,1.71,2.79,0,5.72-.76,8.79-2.28,11.9-5.85,22.92-14.06,33.06-24.62,9.21-9.65,16.79-20.21,22.74-31.69.09-.53.7-2.09,1.81-4.67.74-2.05,1.12-3.72,1.12-5.02,0-1.82-.75-3.34-2.23-4.56Z" style="fill:#bcbec0;"/><path d="m33.14,44.84c3.75,4.02,9.68,4.58,14.99,4.92,6.53.41,13.13-.08,19.67.43,7.88.61,17.25,3.8,22.32,9.94-1-5.21-3-10.07-7.5-13.53-6.47-4.98-15.67-4.85-23.4-4.05-8.65.9-19.06,4.52-27.28.84l1.2,1.45Z" style="fill:#bcbec0;"/></g><g><path d="m85.82,5.13c-3.26-.3-6.84-.46-10.74-.46-3.44,0-8.74.17-15.9.51-7.16.34-12.56.51-16.18.51-4.56,0-8.74-.19-12.55-.57-.75-.53-1.12-1.14-1.12-1.82,0-.46.16-1.06.49-1.82.33-.76.49-1.25.49-1.48-2.88,1.37-5.77,3.46-8.65,6.27-2.05,2.81-3.07,5.06-3.07,6.73,0,1.06.28,2.01.84,2.85.19,1.29,1.21,2.28,3.07,2.96,1.4.53,2.79,1.06,4.19,1.6-.19.3-2.05,2.93-5.58,7.87-1.71,2.34-3.26,4.33-4.66,5.97-3.21,5.51-10.9,15.63-10.82,15.69C2.26,56.47.4,61.03.03,63.61c-.19,1.37.23,2.55,1.26,3.54,2.04,1.75,3.58,2.78,4.6,3.08.37.68.74,1.37,1.12,2.05.56,1.07,1.35,1.98,2.37,2.74,1.02.76,2.32,1.25,3.91,1.48,3.81.46,7.67.68,11.58.68,6.6,0,16.6-1.1,29.99-3.3,1.58-.46,2.74-1.6,3.49-3.42.46-1.44.93-2.93,1.39-4.45.19-.53.65-1.1,1.4-1.71.74-.61,1.12-.95,1.12-1.03l-.14-.11c-2.79-.38-6-.57-9.63-.57-4.09,0-11.91.46-23.44,1.37-3.26.23-5.39.34-6.42.34-.42,0-.8-.03-1.17-.05.18.4.36.8.57,1.21-.22-.41-.39-.81-.57-1.21-2.71-.18-3.91-.77-3.58-1.77.53-1.94,1.32-3.89,2.35-5.83,1.08-8.52,21.51-31.45,23.18-33.96,0-.07-.09-.68-.28-1.82-.09-.76.19-1.14.84-1.14,2.23-.08,6.46-.46,12.69-1.14,5.3-.53,9.44-.72,12.42-.57,4.74-.91,7.81-1.58,9.21-1.99,1.39-.42,2.51-1.5,3.35-3.25.65-1.44,1.26-2.89,1.81-4.33.09-.46.53-.93,1.33-1.42.79-.49,1.19-.93,1.19-1.31,0-.15-.05-.34-.14-.57Z" style="fill:#231f20;"/><path d="m122.44,37.34c-1.3-.23-2.42-1.08-3.35-2.56-.93-1.48-2-2.22-3.21-2.22-5.39,7.98-9.49,13.98-12.28,18.01-9.02,11.71-15.16,19.38-18.41,23.03-7.25,8.44-14.56,15.35-21.9,20.75-.56.46-1.26.61-2.09.46-.84-.15-1.21-.46-1.12-.91.65-4.26,2.51-9.5,5.58-15.73,4.56-9.12,7.07-14.32,7.53-15.62,1.67-3.42,3.35-6.8,5.02-10.14.29-.6.55-1.19.79-1.77-5.56-2.45-11.83-3.44-18.25-3.76-3.11,7.18-6.21,14.38-9.32,21.6-4.93,11.4-8,21.47-9.21,30.21,0,1.45,1.58,3,4.74,4.67,3.53,1.82,5.67,3.54,6.42,5.13.46,1.14,1.72,1.71,3.77,1.71,2.79,0,5.72-.76,8.79-2.28,11.9-5.85,22.92-14.06,33.06-24.62,9.21-9.65,16.79-20.21,22.74-31.69.09-.53.7-2.09,1.81-4.67.74-2.05,1.12-3.72,1.12-5.02,0-1.82-.75-3.34-2.23-4.56Z" style="fill:#231f20;"/><path d="m33.12,38.83c3.75,4.02,9.68,4.58,14.99,4.92,6.53.41,13.13-.08,19.67.43,7.88.61,17.25,3.8,22.32,9.94-1-5.21-3-10.07-7.5-13.53-6.47-4.98-15.67-4.85-23.4-4.05-8.65.9-19.06,4.52-27.28.84l1.2,1.45Z" style="fill:#5d2c85;"/></g><g><path d="m144.95,58.49l-7.5-13.03v-7.44h5.54v5.95c1.45,2.73,2.65,4.94,3.59,6.62,1.75,3.15,3.02,5.12,3.81,5.92l.92.11.92-.11c.44-.4,1.2-1.48,2.25-3.24.64-1.09,1.63-2.84,2.96-5.25.71-1.31,1.44-2.64,2.18-3.98v-6.03h5.54v7.48l-7.43,12.99c-1.43,2.48-3.57,3.72-6.43,3.72-1.36,0-2.58-.32-3.68-.97-1.1-.64-1.99-1.56-2.68-2.75Z" style="fill:#231f20;"/><path d="m167.27,62.21v-7.52l7.5-12.95c.67-1.14,1.57-2.05,2.7-2.72,1.13-.67,2.35-1,3.66-1,2.86,0,5,1.24,6.43,3.72l7.43,12.95v7.52h-5.54v-6.09l-1.85-3.21h-12.9c-.67.62-1.18,1.6-1.55,2.93-.37,1.33-.55,2.68-.55,4.05,0,.9.07,1.67.22,2.32h-5.54Zm12.31-17.69l-1.63,2.8h6.43l-1.63-2.8c-.37-.61-.91-.92-1.62-.92s-1.21.31-1.55.92Z" style="fill:#231f20;"/><path d="m196.44,62.21v-24.19h18.48c2.02,0,3.76.73,5.21,2.2,1.45,1.46,2.18,3.23,2.18,5.29,0,3-1.26,5.12-3.77,6.36-1.92.94-4.66,1.41-8.21,1.41-1.04,0-2.19-.04-3.47-.11-2.98-.17-4.61-.26-4.88-.26v9.3h-5.54Zm18.48-14.89c.49,0,.92-.19,1.29-.56.37-.37.55-.81.55-1.3s-.19-.93-.55-1.3-.8-.56-1.29-.56h-12.94v3.72h12.94Z" style="fill:#231f20;"/><path d="m223.87,45.46c0-2.06.72-3.81,2.16-5.27,1.44-1.45,3.19-2.18,5.23-2.18h12.94c2,0,3.73.74,5.19,2.21,1.47,1.48,2.2,3.22,2.2,5.23v9.3c0,2.06-.72,3.81-2.16,5.27-1.44,1.45-3.19,2.18-5.23,2.18h-12.94c-2.07,0-3.82-.72-5.25-2.16-1.43-1.44-2.14-3.2-2.14-5.29v-9.3Zm22.18,0c0-.5-.18-.93-.55-1.3-.37-.37-.8-.56-1.29-.56h-12.94c-.42,0-.83.21-1.24.61-.41.41-.61.83-.61,1.25v9.3c0,.5.18.93.55,1.3.37.37.8.56,1.29.56h12.94c.49,0,.92-.19,1.29-.56.37-.37.55-.81.55-1.3v-9.3Z" style="fill:#231f20;"/><path d="m279.42,45.46c0,1.61-.44,3.11-1.33,4.5.57.65,1,1.38,1.29,2.21.29.83.44,1.69.44,2.59v7.44h-5.54c0-.47.04-1.19.11-2.16.07-.97.11-1.71.11-2.23,0-1.29-.06-2.25-.18-2.87-.27-1.36-.8-2.05-1.59-2.05h-13.23v9.3h-5.54v-24.19h18.07c2.02,0,3.76.73,5.21,2.2,1.45,1.46,2.18,3.21,2.18,5.25Zm-19.92,1.86h12.71c.49,0,.92-.19,1.29-.56.37-.37.55-.81.55-1.3s-.18-.93-.55-1.3c-.37-.37-.8-.56-1.29-.56h-12.71v3.72Z" style="fill:#231f20;"/></g><g><path d="m114.05,29.46h-20.79V5.27h20.58v5.58h-15.39v3.72h14.73v5.58h-14.73v3.72h15.59v5.58Z" style="fill:#231f20;"/><path d="m133.25,29.46h-17.33V5.27h5.2v18.61h12.13c.44,0,.84-.19,1.2-.58.36-.38.54-.81.54-1.28V5.27h5.2v16.75c0,2.06-.67,3.81-2.03,5.27-1.35,1.45-2.99,2.18-4.9,2.18Z" style="fill:#231f20;"/><path d="m141.84,29.46V5.27h17.33c1.89,0,3.52.73,4.88,2.2,1.36,1.46,2.04,3.23,2.04,5.29,0,3-1.18,5.12-3.53,6.36-1.8.94-4.37,1.41-7.69,1.41-.97,0-2.06-.04-3.26-.11-2.79-.17-4.32-.26-4.57-.26v9.3h-5.2Zm17.33-14.89c.46,0,.87-.19,1.21-.56.35-.37.52-.81.52-1.3s-.17-.93-.52-1.3c-.35-.37-.75-.56-1.21-.56h-12.13v3.72h12.13Z" style="fill:#231f20;"/><path d="m172.89,29.46h-5.2V5.27h5.2v9.3h12.13V5.27h5.2v24.19h-5.2v-9.3h-12.13v9.3Z" style="fill:#231f20;"/><path d="m192.12,12.72c0-2.06.68-3.81,2.03-5.27,1.35-1.45,2.98-2.18,4.9-2.18h12.13c1.87,0,3.49.74,4.87,2.21,1.37,1.48,2.06,3.22,2.06,5.23v9.3c0,2.06-.68,3.81-2.03,5.27-1.35,1.45-2.99,2.18-4.9,2.18h-12.13c-1.94,0-3.58-.72-4.92-2.16-1.34-1.44-2.01-3.2-2.01-5.29v-9.3Zm20.79,0c0-.5-.17-.93-.52-1.3-.35-.37-.75-.56-1.21-.56h-12.13c-.39,0-.78.21-1.16.61-.38.41-.57.83-.57,1.25v9.3c0,.5.17.93.52,1.3.35.37.75.56,1.21.56h12.13c.46,0,.87-.19,1.21-.56.35-.37.52-.81.52-1.3v-9.3Z" style="fill:#231f20;"/><path d="m244.2,12.72c0,1.61-.42,3.11-1.25,4.5.53.65.94,1.38,1.21,2.21.28.83.42,1.69.42,2.59v7.44h-5.2c0-.47.04-1.19.11-2.16.07-.97.1-1.71.1-2.23,0-1.29-.06-2.25-.17-2.87-.25-1.36-.75-2.05-1.49-2.05h-12.4v9.3h-5.2V5.27h16.94c1.89,0,3.52.73,4.89,2.2,1.36,1.46,2.04,3.21,2.04,5.25Zm-18.68,1.86h11.92c.46,0,.87-.19,1.21-.56s.52-.81.52-1.3-.17-.93-.52-1.3c-.35-.37-.75-.56-1.21-.56h-11.92v3.72Z" style="fill:#231f20;"/><path d="m247.53,5.27h5.2v24.19h-5.2V5.27Z" style="fill:#231f20;"/><path d="m254.6,29.46v-7.52l7.03-12.95c.62-1.14,1.47-2.05,2.53-2.72,1.06-.67,2.21-1,3.43-1,2.68,0,4.69,1.24,6.03,3.72l6.96,12.95v7.52h-5.2v-6.09l-1.73-3.21h-12.09c-.62.62-1.11,1.6-1.46,2.93-.35,1.33-.52,2.68-.52,4.05,0,.9.07,1.67.21,2.32h-5.2Zm11.54-17.69l-1.53,2.8h6.03l-1.52-2.8c-.35-.61-.86-.92-1.53-.92s-1.13.31-1.46.92Z" style="fill:#231f20;"/></g></svg>