<?xml version="1.0" standalone="no"?>
<!DOCTYPE svg PUBLIC "-//W3C//DTD SVG 20010904//EN"
 "http://www.w3.org/TR/2001/REC-SVG-20010904/DTD/svg10.dtd">
<svg version="1.0" xmlns="http://www.w3.org/2000/svg"
 width="1000.000000pt" height="1000.000000pt" viewBox="0 0 1000.000000 1000.000000"
 preserveAspectRatio="xMidYMid meet">
<metadata>
Created by potrace 1.14, written by Peter Selinger 2001-2017
</metadata>
<g transform="translate(0.000000,1000.000000) scale(0.100000,-0.100000)"
fill="#000000" stroke="none">
<path d="M2342 9615 c-260 -139 -556 -381 -665 -543 -74 -110 -152 -268 -173
-352 -24 -93 -15 -191 25 -277 17 -36 31 -72 31 -80 0 -27 39 -90 79 -126 51
-46 91 -66 249 -126 70 -27 153 -59 184 -71 l58 -23 -37 -51 c-40 -56 -192
-274 -300 -430 -91 -132 -264 -363 -383 -511 -53 -66 -127 -169 -165 -230 -98
-160 -317 -476 -569 -825 -207 -286 -226 -317 -322 -510 -246 -496 -359 -807
-352 -966 4 -94 50 -187 121 -247 102 -85 201 -155 273 -193 l74 -39 62 -114
c171 -310 327 -383 893 -420 536 -35 1033 -18 1620 54 110 13 263 31 340 40
77 8 223 28 325 44 102 16 187 27 189 26 1 -2 -15 -50 -37 -107 -146 -379
-322 -977 -402 -1362 -58 -281 -81 -436 -70 -476 25 -94 140 -207 301 -296
391 -215 493 -297 600 -477 66 -110 284 -140 583 -81 255 50 783 316 1316 662
1124 730 2181 1791 2987 3002 270 406 573 935 618 1080 10 30 38 102 63 160
60 140 78 194 108 325 47 201 43 314 -16 432 -28 56 -123 163 -144 163 -27 0
-119 53 -162 92 -26 24 -68 75 -94 114 -55 80 -106 128 -164 155 -88 40 -58
72 -432 -478 -680 -1002 -618 -917 -1254 -1728 -648 -826 -1015 -1255 -1465
-1714 -356 -363 -774 -731 -1135 -998 -76 -57 -128 -70 -196 -48 -29 9 -58 23
-65 31 -30 36 67 419 183 718 82 215 137 334 435 941 157 319 314 645 350 725
36 80 127 272 204 428 76 155 139 287 139 291 0 5 43 92 95 195 52 102 95 192
95 199 0 31 -415 170 -645 216 -238 47 -566 89 -739 94 l-89 2 -53 -120 c-29
-66 -53 -125 -54 -130 0 -6 -56 -141 -125 -300 -69 -160 -167 -386 -217 -503
l-91 -212 -186 0 c-282 0 -518 -14 -1446 -82 -442 -33 -616 -41 -825 -42 -251
-1 -268 1 -325 22 -69 26 -105 56 -105 88 0 36 77 248 135 374 30 63 59 140
66 170 27 125 133 352 271 584 236 394 677 983 1328 1771 95 116 191 234 213
262 l39 53 -11 63 c-18 104 -15 146 12 156 12 5 96 14 187 20 91 6 255 20 365
31 110 10 340 33 510 49 414 41 580 51 807 51 217 0 271 8 663 95 264 59 327
81 390 136 89 78 128 150 245 454 47 120 66 147 153 208 64 45 91 84 81 121
-7 28 -15 30 -274 48 -223 15 -973 15 -1320 0 -146 -7 -458 -22 -695 -33 -988
-46 -2099 -31 -2181 29 -12 9 -33 34 -45 56 -28 50 -22 121 21 230 17 44 30
85 28 92 -2 9 -29 -1 -86 -31z"/>
<path d="M5120 6759 c-300 -13 -525 -42 -1135 -148 -390 -68 -770 -92 -995
-61 -94 12 -340 79 -392 106 -33 17 -38 17 -38 1 0 -14 176 -207 189 -207 5 0
44 -24 87 -53 103 -69 227 -120 389 -162 199 -50 289 -61 780 -95 83 -5 393
-12 690 -15 759 -6 916 -19 1270 -105 475 -114 957 -368 1196 -628 32 -36 61
-63 63 -61 6 7 -43 199 -81 314 -48 147 -118 294 -199 418 -85 131 -261 308
-393 396 -350 233 -802 327 -1431 300z"/>
</g>
</svg>
